<svg width="1118" height="244" viewBox="0 0 1118 244" fill="none" xmlns="http://www.w3.org/2000/svg">
<path d="M275.508 153.932V38.3574C275.508 37.2573 276.058 36.7072 277.158 36.7072H283.698C289.077 36.7072 293.681 38.6223 297.511 42.4523C301.341 46.2824 303.256 50.907 303.256 56.3262V70.9946H333.815C334.915 70.9946 335.465 71.5447 335.465 72.6448V88.9634C335.465 91.6526 334.508 93.9547 332.593 95.8698C330.678 97.7848 328.376 98.7423 325.686 98.7423H303.256V153.932C303.256 159.311 304.601 163.283 307.29 165.85C310.183 168.662 314.604 170.067 320.553 170.067C325.809 170.067 329.904 168.947 332.837 166.706C333.367 166.298 333.937 166.237 334.549 166.523C335.16 166.808 335.465 167.297 335.465 167.989V194.515C335.465 195.37 335.058 195.9 334.243 196.104C329.924 197.245 325.36 197.815 320.553 197.815C307.229 197.815 296.411 193.802 288.099 185.775C279.705 177.707 275.508 167.093 275.508 153.932Z" fill="white"/>
<path d="M480.56 72.6448V193.17C480.56 194.27 480.01 194.82 478.91 194.82H472.37C464.588 194.82 458.843 191.377 455.135 184.491C444.826 193.374 432.562 197.815 418.342 197.815C400.414 197.815 385.114 191.479 372.442 178.807C359.77 166.135 353.434 150.836 353.434 132.907C353.434 114.979 359.77 99.6795 372.442 87.0076C385.114 74.3357 400.414 67.9998 418.342 67.9998C432.562 67.9998 444.826 72.4411 455.135 81.3236C458.843 74.4376 464.588 70.9946 472.37 70.9946H478.91C480.01 70.9946 480.56 71.5447 480.56 72.6448ZM392.061 106.627C384.808 113.879 381.182 122.64 381.182 132.907C381.182 143.175 384.808 151.936 392.061 159.188C399.314 166.441 408.074 170.067 418.342 170.067C428.61 170.067 437.37 166.441 444.623 159.188C451.875 151.936 455.502 143.175 455.502 132.907C455.502 122.64 451.875 113.879 444.623 106.627C437.37 99.3739 428.61 95.7475 418.342 95.7475C408.074 95.7475 399.314 99.3739 392.061 106.627Z" fill="white"/>
<path d="M540.028 26.4393V193.17C540.028 194.27 539.478 194.82 538.378 194.82H513.931C513.483 194.82 513.096 194.657 512.77 194.331C512.444 194.005 512.281 193.618 512.281 193.17V26.4393C512.281 25.3392 512.831 24.7891 513.931 24.7891H538.378C539.478 24.7891 540.028 25.3392 540.028 26.4393Z" fill="white"/>
<path d="M585.806 21.8555C590.573 21.8555 594.627 23.526 597.969 26.8672C601.35 30.2491 603.041 34.3236 603.041 39.0908C603.041 43.8173 601.35 47.8715 597.969 51.2534C594.627 54.6353 590.573 56.3262 585.806 56.3262C581.039 56.3262 576.985 54.6353 573.643 51.2534C570.262 47.8715 568.571 43.8173 568.571 39.0908C568.571 34.3236 570.262 30.2491 573.643 26.8672C576.985 23.526 581.039 21.8555 585.806 21.8555ZM599.68 193.17C599.68 194.27 599.13 194.82 598.03 194.82H573.582C573.134 194.82 572.747 194.657 572.421 194.331C572.095 194.005 571.932 193.618 571.932 193.17V72.6448C571.932 72.1966 572.095 71.8095 572.421 71.4835C572.747 71.1576 573.134 70.9946 573.582 70.9946H598.03C599.13 70.9946 599.68 71.5447 599.68 72.6448V193.17Z" fill="white"/>
<path d="M749.725 72.6448V190.848C749.725 201.279 747.423 210.874 742.819 219.634C737.848 229.047 730.901 235.912 721.978 240.231C715.866 243.246 709.734 244.448 703.581 243.837C696.736 243.185 691.48 240.292 687.812 235.158L683.412 228.924C683.045 228.435 682.984 227.906 683.229 227.335C683.473 226.765 683.901 226.439 684.512 226.357C695.31 224.768 703.988 221.244 710.549 215.784C718.168 209.428 721.978 201.116 721.978 190.848V186.386C712.117 194.005 700.627 197.815 687.507 197.815C669.579 197.815 654.279 191.479 641.607 178.807C628.935 166.135 622.599 150.836 622.599 132.907C622.599 114.979 628.935 99.6795 641.607 87.0076C654.279 74.3357 669.579 67.9998 687.507 67.9998C701.727 67.9998 713.992 72.4411 724.3 81.3236C728.008 74.4376 733.753 70.9946 741.535 70.9946H748.075C749.175 70.9946 749.725 71.5447 749.725 72.6448ZM661.226 106.627C653.973 113.879 650.347 122.64 650.347 132.907C650.347 143.175 653.973 151.936 661.226 159.188C668.479 166.441 677.239 170.067 687.507 170.067C697.775 170.067 706.535 166.441 713.788 159.188C721.04 151.936 724.667 143.175 724.667 132.907C724.667 122.64 721.04 113.879 713.788 106.627C706.535 99.3739 697.775 95.7475 687.507 95.7475C677.239 95.7475 668.479 99.3739 661.226 106.627Z" fill="white"/>
<path d="M837.369 67.9998C855.297 67.9998 870.577 74.3357 883.208 87.0076C887.608 91.4081 890.97 96.5828 893.292 102.532C895.737 108.684 896.633 114.572 895.981 120.195C895.126 127.122 892.314 132.541 887.547 136.452C882.943 140.242 877.055 142.136 869.884 142.136H801.37C803.041 148.696 806.28 154.38 811.088 159.188C818.341 166.441 827.101 170.067 837.369 170.067C847.637 170.067 856.397 166.441 863.65 159.188C864.261 158.536 864.872 157.864 865.483 157.171C865.809 156.805 866.217 156.621 866.706 156.621H895.309C895.92 156.621 896.389 156.866 896.715 157.355C897.041 157.844 897.082 158.353 896.837 158.883C893.577 166.38 889.034 173.021 883.208 178.807C870.536 191.479 855.256 197.815 837.369 197.815C819.441 197.815 804.141 191.479 791.469 178.807C778.797 166.135 772.461 150.836 772.461 132.907C772.461 114.979 778.797 99.6795 791.469 87.0076C804.141 74.3357 819.441 67.9998 837.369 67.9998ZM863.65 106.627C856.397 99.3739 847.637 95.7475 837.369 95.7475C827.101 95.7475 818.341 99.3739 811.088 106.627C807.421 110.334 804.63 114.592 802.715 119.4H863.833C866.074 119.4 867.521 118.524 868.173 116.772C869.191 114.083 867.684 110.701 863.65 106.627Z" fill="white"/>
<path d="M919.451 111.883C919.451 97.907 925.033 86.8854 936.197 78.8177C946.058 71.6058 958.852 67.9998 974.58 67.9998C990.307 67.9998 1003.1 71.6058 1012.96 78.8177C1024.13 86.8854 1029.71 97.907 1029.71 111.883V193.17C1029.71 194.27 1029.16 194.82 1028.06 194.82H1011.74C1009.05 194.82 1006.75 193.863 1004.83 191.948C1002.92 190.033 1001.96 187.731 1001.96 185.041V111.883C1001.96 107.319 1000.21 103.774 996.704 101.248C991.693 97.5811 984.318 95.7475 974.58 95.7475C964.801 95.7475 957.426 97.5811 952.455 101.248C948.951 103.774 947.199 107.319 947.199 111.883V193.17C947.199 194.27 946.649 194.82 945.548 194.82H921.101C920.001 194.82 919.451 194.27 919.451 193.17V111.883Z" fill="white"/>
<path d="M1057.82 153.932V38.3574C1057.82 37.2573 1058.37 36.7072 1059.47 36.7072H1066.01C1071.39 36.7072 1076 38.6223 1079.83 42.4523C1083.66 46.2824 1085.57 50.907 1085.57 56.3262V70.9946H1116.13C1117.23 70.9946 1117.78 71.5447 1117.78 72.6448V88.9634C1117.78 91.6526 1116.82 93.9547 1114.91 95.8698C1112.99 97.7848 1110.69 98.7423 1108 98.7423H1085.57V153.932C1085.57 159.311 1086.92 163.283 1089.6 165.85C1092.5 168.662 1096.92 170.067 1102.87 170.067C1108.12 170.067 1112.22 168.947 1115.15 166.706C1115.68 166.298 1116.25 166.237 1116.86 166.523C1117.47 166.808 1117.78 167.297 1117.78 167.989V194.515C1117.78 195.37 1117.37 195.9 1116.56 196.104C1112.24 197.245 1107.67 197.815 1102.87 197.815C1089.54 197.815 1078.73 193.802 1070.41 185.775C1062.02 177.707 1057.82 167.093 1057.82 153.932Z" fill="white"/>
<path d="M56.0026 27.8912C56.0026 43.2951 43.5153 55.7824 28.1114 55.7824C12.7075 55.7824 0.220215 43.2951 0.220215 27.8912C0.220215 12.4873 12.7075 0 28.1114 0C43.5153 0 56.0026 12.4873 56.0026 27.8912Z" fill="white"/>
<path d="M73.4176 27.8912C73.4176 12.4873 85.905 0 101.309 0H201.717C217.121 0 229.608 12.4873 229.608 27.8912C229.608 43.2951 217.121 55.7824 201.717 55.7824H101.309C85.905 55.7824 73.4176 43.2951 73.4176 27.8912Z" fill="white"/>
<path d="M73.4176 109.252C73.4176 93.848 85.905 81.3607 101.309 81.3607H157.636C173.039 81.3607 185.527 93.848 185.527 109.252C185.527 124.656 173.039 137.143 157.636 137.143H101.309C85.905 137.143 73.4176 124.656 73.4176 109.252Z" fill="white"/>
<path d="M73.4176 190.613C73.4176 175.209 85.905 162.721 101.309 162.721H126.615C142.019 162.721 154.506 175.209 154.506 190.613C154.506 206.017 142.019 218.504 126.615 218.504H101.309C85.905 218.504 73.4176 206.017 73.4176 190.613Z" fill="white"/>
</svg>
